<svg fill="none" viewBox="0 0 16 20" xmlns="http://www.w3.org/2000/svg"><g fill="#000"><path d="m5 5v-4.87a2.96 2.96 0 0 0 -1.293.749l-2.828 2.828a2.96 2.96 0 0 0 -.749 1.293z"/><path d="m14.067 0h-7.067v5a2 2 0 0 1 -2 2h-5v11a1.969 1.969 0 0 0 1.933 2h12.134a1.97 1.97 0 0 0 1.933-2v-16a1.97 1.97 0 0 0 -1.933-2zm-7.358 13.809a1 1 0 1 1 -1.418 1.409l-2-2.013a1 1 0 0 1 0-1.412l2-2a1 1 0 0 1 1.414 1.414l-1.293 1.293zm6-.6-2 2.013a1 1 0 1 1 -1.418-1.409l1.3-1.307-1.295-1.295a1 1 0 0 1 1.414-1.414l2 2a1 1 0 0 1 -.001 1.408z"/></g></svg>